# xmcd
#
# Track frame offsets:
#	150
#	15707
#	41225
#	58440
#	80565
#	117589
#	131900
#	155594
#	175270
#	185236
#	205588
#
# Disc length: 2940 seconds
#
# Revision: 0
# Processed by: cddbd v1.5.2PL0 Copyright (c) Steve Scherf et al.
# Submitted via: audiograbber 1.83.01
#
DISCID=a80b7a0b
DTITLE=Joe Bonamassa - Sloe Gin
DYEAR=2007
DGENRE=Blues
TTITLE0=Ball Peen Hammer
TTITLE1=One Of These Days
TTITLE2=Seagull
TTITLE3=Dirty In My Pocket
TTITLE4=Sloe Gin
TTITLE5=Another Kind Of Love
TTITLE6=Around The Bend
TTITLE7=Black Night
TTITLE8=Jelly Roll
TTITLE9=Richmond
TTITLE10=India
EXTD=
EXTT0=
EXTT1=
EXTT2=
EXTT3=
EXTT4=
EXTT5=
EXTT6=
EXTT7=
EXTT8=
EXTT9=
EXTT10=
PLAYORDER=
